Coordinates
version=1
nRows=8
nColumns=36
inDegrees=yes

Units are S.I. units (second, meters, Newtons, ...)
If the header above contains a line with 'inDegrees', this indicates whether rotational values are in degrees (yes) or radians (no).

endheader
time	pelvis_tilt	pelvis_list	pelvis_rotation	pelvis_tx	pelvis_ty	pelvis_tz	hip_flexion_r	hip_adduction_r	hip_rotation_r	knee_angle_r	knee_angle_r_beta	ankle_angle_r	subtalar_angle_r	mtp_angle_r	hip_flexion_l	hip_adduction_l	hip_rotation_l	knee_angle_l	knee_angle_l_beta	ankle_angle_l	subtalar_angle_l	mtp_angle_l	lumbar_extension	lumbar_bending	lumbar_rotation	arm_flex_r	arm_add_r	arm_rot_r	elbow_flex_r	pro_sup_r	arm_flex_l	arm_add_l	arm_rot_l	elbow_flex_l	pro_sup_l
      1.33333330	     -6.97815904	     -0.88748667	      2.92691095	      0.31331878	      0.93796841	     -0.04658400	      4.04758681	     -3.26251468	    -12.63705759	      2.35479158	      0.04109887	     -1.52711015	    -14.75483828	     -7.49999987	      4.60004471	     -5.36660991	      4.38022488	      0.73697779	      0.01286269	      0.25344779	     -2.20196110	     -7.49999987	      1.33185403	      0.55973025	      1.98538104	     -9.72630453	     -7.51681642	      0.72029142	     46.14342371	     64.61238194	     -1.50101533	    -12.86331941	     19.80177144	     42.95409723	     65.37600117
      1.35000000	     -7.03027472	     -0.91345699	      2.93587573	      0.31313086	      0.93761851	     -0.04625041	      4.12653239	     -3.23557133	    -12.76913215	      2.37321318	      0.04142038	     -1.38401491	    -14.51771336	     -7.49999987	      4.66051900	     -5.39647232	      4.48324113	      0.72538370	      0.01266033	      0.17703603	     -2.37937835	     -7.49999987	      1.31828826	      0.57554755	      2.67691691	    -10.56533044	     -7.24706064	     -1.30636429	     47.07750524	     70.89898745	     -0.86236631	    -12.91341737	     20.13402443	     42.65784264	     72.52858386
      1.36666670	     -7.12990400	     -0.92409716	      2.94395991	      0.31349713	      0.93789498	     -0.04670295	      4.22795083	     -3.22529887	    -12.88194231	      2.40774362	      0.04202305	     -1.35984202	    -14.47947122	     -7.49999987	      4.79579111	     -5.40884460	      4.48153044	      0.76656260	      0.01337904	      0.16080941	     -2.38680350	     -7.49999987	      1.41128992	      0.51504375	      2.37020899	    -10.45594991	     -7.38419733	     -0.49918032	     47.09006247	     68.27928931	     -1.21055880	    -13.02737259	     19.87524941	     43.22661658	     69.48755972
      1.38333330	     -7.17673852	     -0.90828951	      2.93147397	      0.31344955	      0.94052547	     -0.04631780	      4.25312113	     -3.23084752	    -12.99041659	      2.40429148	      0.04196280	     -1.35619929	    -14.34099415	     -7.49999987	      4.86346419	     -5.41218962	      4.37582679	      0.81001063	      0.01413735	      0.10858006	     -2.19987538	     -7.49999987	      1.41345703	      0.48937715	      2.55241700	    -10.81376687	     -7.28025967	     -1.38207883	     47.64799722	     71.23175485	     -1.09642077	    -13.07774216	     19.70263258	     43.34004921	     73.08491186
      1.40000000	     -7.26840804	     -0.89888580	      2.91909763	      0.31380605	      0.93758003	     -0.04678828	      4.34948847	     -3.27265650	    -13.08656635	      2.39022212	      0.04171725	     -1.33868322	    -14.37117266	     -7.49999987	      4.98923185	     -5.39013631	      4.30493289	      0.87459962	      0.01526464	      0.08714674	     -2.18119705	     -7.49999987	      1.50171745	      0.46359583	      2.28842986	    -10.67003272	     -7.41124006	     -0.59627348	     47.78066210	     68.64937891	     -1.41254008	    -13.17907223	     19.52846653	     43.86116914	     70.13304738
      1.41666670	     -7.30829665	     -0.86286381	      3.00465344	      0.31772848	      0.94014817	     -0.05114744	      4.28488933	     -3.40929392	    -13.26815290	      2.33946778	      0.04083142	     -1.37781909	    -14.35189471	     -7.49999987	      4.99104909	     -5.29794787	      4.33714786	      0.86141911	      0.01503460	      0.07653704	     -2.08779971	     -7.49999987	      1.60175118	      0.47563696	      2.22112433	    -10.78426167	     -7.46248081	     -0.60989567	     47.86170583	     68.69795720	     -1.44252838	    -13.16159836	     19.59359719	     43.90730129	     70.20045850
      1.43333330	     -7.36821516	     -0.87432664	      3.05128943	      0.31790181	      0.93724785	     -0.05156314	      4.27024382	     -3.51184044	    -13.68946308	      2.30222680	      0.04018144	     -1.05812222	    -13.74483972	     -7.49999987	      5.01541788	     -5.22834783	      4.26087070	      0.87026786	      0.01518904	      0.26040356	     -1.92549133	     -7.49999987	      1.67966945	      0.59846085	      2.86507922	    -11.69553196	     -7.36707480	     -1.64528486	     49.02258003	     69.32007335	     -0.73151759	    -13.43849266	     21.63946008	     43.66524387	     71.33998267
      1.45000000	     -7.41914583	     -0.85928162	      3.21258352	      0.31771981	      0.93979866	     -0.05114981	      4.22700765	     -3.60540177	    -13.84541776	      2.19909439	      0.03838144	     -1.02839680	    -13.62073829	     -7.49999987	      5.04461532	     -5.13685914	      4.38903646	      0.83135687	      0.01450991	      0.25855805	     -1.93316345	     -7.49999987	      1.75553328	      0.63139136	      2.62566429	    -11.85828893	     -7.30887616	     -1.99175339	     49.39175758	     70.22832726	     -0.90735321	    -13.38657698	     21.30174607	     43.78932715	     71.75455329
